<?xml version="1.0" standalone="no"?>
<!DOCTYPE svg PUBLIC "-//W3C//DTD SVG 20010904//EN"
 "http://www.w3.org/TR/2001/REC-SVG-20010904/DTD/svg10.dtd">
<svg version="1.0" xmlns="http://www.w3.org/2000/svg"
 width="256.000000pt" height="256.000000pt" viewBox="0 0 256.000000 256.000000"
 preserveAspectRatio="xMidYMid meet">
<metadata>
Created by potrace 1.14, written by Peter Selinger 2001-2017
</metadata>
<g transform="translate(0.000000,256.000000) scale(0.100000,-0.100000)"
fill="#000000" stroke="none">
<path d="M974 2254 c-38 -7 -99 -15 -134 -19 -36 -4 -67 -8 -70 -10 -3 -2 -34
-6 -70 -10 -36 -4 -67 -8 -70 -10 -3 -1 -32 -6 -65 -10 -103 -12 -129 -15
-155 -20 -14 -2 -45 -7 -70 -11 -52 -7 -54 -8 -57 -37 0 -12 -4 -37 -7 -56 -3
-19 -2 -39 2 -45 8 -13 10 -766 2 -771 -5 -3 -51 -10 -140 -20 -25 -3 -54 -7
-65 -10 -11 -2 -23 -4 -26 -4 -12 -2 -16 -50 -5 -55 7 -3 6 -5 -2 -5 -8 -1
-10 -6 -5 -13 4 -7 8 -186 8 -398 0 -315 -2 -388 -13 -399 -12 -13 -11 -16 9
-24 22 -9 33 -12 79 -20 9 -2 21 -6 28 -11 6 -4 12 -4 12 0 0 3 11 -1 24 -9
18 -12 26 -13 36 -4 10 9 11 9 5 -2 -6 -11 -4 -13 8 -8 10 3 17 2 17 -3 0 -5
7 -7 15 -4 8 4 15 2 15 -2 0 -5 15 -10 32 -11 18 -2 34 -7 36 -13 2 -5 8 -10
13 -10 6 0 7 6 3 13 -6 9 -4 9 7 -1 7 -6 23 -12 35 -12 13 0 25 -4 28 -9 4 -5
17 -8 31 -6 14 1 25 -1 25 -6 0 -4 19 -5 43 -3 23 3 50 5 60 5 9 0 15 4 12 8
-2 5 5 9 18 9 30 2 50 6 64 15 7 5 17 5 23 2 6 -3 10 -2 10 3 0 6 13 9 29 8
17 -1 28 2 25 6 -3 4 9 8 25 8 17 0 31 4 31 8 0 5 7 9 15 9 8 0 12 -4 9 -8 -2
-4 0 -11 6 -14 6 -4 10 -3 9 2 -4 22 3 31 21 28 11 -2 20 1 20 7 0 6 7 5 17
-3 11 -10 14 -10 9 -1 -7 12 10 17 43 13 8 -2 10 2 5 10 -4 7 -3 10 4 5 6 -3
15 2 21 11 6 10 11 13 11 8 0 -6 23 -11 50 -12 28 -2 48 2 45 7 -3 5 -1 11 4
14 5 4 13 1 17 -5 5 -8 3 -9 -6 -4 -9 6 -11 4 -5 -5 7 -11 10 -11 19 2 9 15
11 15 22 0 12 -15 12 -15 8 4 -3 12 -1 25 5 28 7 5 8 1 4 -11 -6 -15 -2 -14
21 5 16 12 32 19 36 17 5 -3 11 -1 15 5 4 6 11 8 16 5 5 -4 15 -3 22 2 18 11
36 12 42 3 3 -5 14 -7 25 -5 17 3 18 1 10 -15 -5 -10 -15 -21 -22 -23 -8 -3
-6 -6 5 -6 9 -1 17 4 17 10 0 5 5 7 12 3 7 -4 8 -3 4 4 -4 7 -1 12 9 12 9 0
13 -4 10 -10 -3 -6 1 -7 9 -4 9 3 13 11 9 17 -3 6 -1 7 6 3 6 -4 9 -11 6 -16
-6 -9 19 -32 27 -25 10 10 49 14 43 5 -3 -5 7 -8 22 -6 16 1 33 -1 39 -6 6 -4
19 -9 30 -11 10 -1 25 -6 32 -10 6 -5 16 -6 21 -2 6 3 8 -2 7 -12 -3 -13 3
-18 20 -18 22 0 23 1 7 13 -23 17 -8 15 27 -3 17 -9 30 -13 30 -9 0 4 7 1 15
-6 8 -7 24 -10 34 -7 11 3 28 -1 38 -9 10 -7 26 -14 36 -14 12 0 16 -4 11 -12
-6 -10 -4 -10 8 0 12 9 18 10 23 2 5 -8 11 -7 23 2 12 10 14 10 8 1 -4 -7 -3
-13 3 -13 5 0 13 5 16 10 4 6 11 8 16 5 5 -4 9 -2 9 4 0 6 7 8 15 5 8 -4 15
-1 15 7 0 7 3 9 7 6 3 -4 13 -1 21 6 13 10 14 9 7 -3 -8 -13 -7 -13 8 -1 9 7
17 10 17 6 0 -4 7 -2 15 5 8 7 15 9 15 4 0 -5 4 -4 8 3 4 7 22 13 40 15 18 1
32 6 32 11 0 4 5 5 10 2 6 -4 17 -1 25 5 8 6 19 9 25 5 5 -3 10 -2 10 4 0 5 8
8 18 7 9 -2 19 0 22 5 3 4 19 9 35 11 17 2 32 5 35 8 5 6 117 40 137 42 17 2
24 24 15 51 -5 12 -8 273 -7 580 0 307 -2 562 -5 566 -4 8 -116 27 -330 56
-45 7 -85 13 -135 21 -22 4 -76 8 -120 9 l-80 1 0 168 c0 92 3 170 7 172 4 3
3 16 -2 30 -6 14 -10 40 -10 59 0 37 -8 42 -76 50 -22 3 -50 7 -64 10 -14 3
-45 7 -69 10 -23 3 -55 7 -70 9 -14 3 -62 10 -106 16 -44 6 -95 13 -113 15
-18 3 -52 7 -75 10 -23 3 -80 11 -127 18 -67 10 -101 10 -156 1z m491 -1883
c3 -5 1 -12 -5 -16 -5 -3 -10 1 -10 9 0 18 6 21 15 7z"/>
<path d="M1290 385 c-9 -10 -7 -13 7 -11 10 2 21 -2 25 -8 5 -8 8 -7 8 2 0 7
4 11 9 7 5 -3 13 -1 16 5 4 6 3 10 -2 9 -4 -1 -10 0 -13 1 -21 8 -41 6 -50 -5z"/>
<path d="M1255 381 c-3 -6 -11 -8 -17 -5 -7 4 -8 2 -4 -5 4 -6 3 -17 -3 -24
-7 -9 -5 -13 8 -13 12 0 17 5 13 14 -3 8 1 18 9 22 7 5 11 12 7 15 -3 4 -9 1
-13 -4z"/>
<path d="M1270 356 c0 -2 9 -6 20 -9 11 -3 18 -1 14 4 -5 9 -34 13 -34 5z"/>
<path d="M1417 353 c-4 -3 -7 -11 -7 -17 0 -6 5 -5 12 2 6 6 9 14 7 17 -3 3
-9 2 -12 -2z"/>
<path d="M1193 325 c0 -8 4 -12 9 -9 5 3 6 10 3 15 -9 13 -12 11 -12 -6z"/>
<path d="M1474 315 c0 -14 3 -25 7 -25 3 0 7 11 7 25 0 14 -4 25 -7 25 -4 0
-7 -11 -7 -25z"/>
<path d="M1523 320 c-1 -11 2 -22 8 -25 5 -4 6 2 2 11 -5 13 -3 15 8 9 12 -8
12 -6 0 8 -17 21 -16 21 -18 -3z"/>
<path d="M1556 325 c4 -8 11 -15 16 -15 6 0 5 6 -2 15 -7 8 -14 15 -16 15 -2
0 -1 -7 2 -15z"/>
<path d="M1036 322 c-2 -4 9 -8 25 -8 33 -2 33 4 1 11 -12 2 -24 1 -26 -3z"/>
<path d="M1373 315 c0 -8 4 -12 9 -9 5 3 17 0 26 -7 13 -11 12 -8 -2 9 -22 26
-33 28 -33 7z"/>
<path d="M1425 320 c-3 -6 1 -7 9 -4 18 7 21 14 7 14 -6 0 -13 -4 -16 -10z"/>
<path d="M1610 311 c0 -5 5 -13 10 -16 6 -3 10 -2 10 4 0 5 -4 13 -10 16 -5 3
-10 2 -10 -4z"/>
<path d="M1003 302 c-7 -4 -9 -13 -4 -21 6 -9 10 -7 14 8 3 12 4 21 4 21 -1 0
-7 -4 -14 -8z"/>
<path d="M1113 291 c10 -12 9 -14 -4 -9 -9 4 -16 1 -16 -7 0 -10 5 -11 17 -5
11 6 22 5 31 -3 7 -7 5 -2 -4 9 -14 17 -15 23 -5 27 7 3 3 4 -9 4 -18 -1 -20
-4 -10 -16z"/>
<path d="M1590 303 c0 -6 8 -17 18 -24 16 -13 16 -13 2 6 -8 11 -16 22 -17 24
-2 2 -3 0 -3 -6z"/>
<path d="M953 285 c0 -8 3 -13 5 -10 3 3 12 -1 20 -8 13 -11 14 -9 1 11 -16
26 -26 28 -26 7z"/>
<path d="M1329 283 c-8 -9 -9 -14 -2 -10 6 4 13 1 16 -5 3 -7 4 -3 4 10 -1 26
-1 26 -18 5z"/>
<path d="M1221 274 c0 -11 3 -14 6 -6 3 7 2 16 -1 19 -3 4 -6 -2 -5 -13z"/>
<path d="M1279 273 c-12 -16 -12 -17 2 -6 9 7 19 10 22 6 4 -3 7 -1 7 5 0 17
-16 15 -31 -5z"/>
<path d="M1426 282 c-3 -5 1 -9 9 -9 8 0 12 4 9 9 -3 4 -7 8 -9 8 -2 0 -6 -4
-9 -8z"/>
<path d="M1029 263 c-13 -16 -12 -17 3 -5 9 8 23 10 29 6 8 -4 9 -3 5 4 -10
17 -21 15 -37 -5z"/>
<path d="M1189 263 c-13 -16 -12 -17 4 -4 16 13 21 21 13 21 -2 0 -10 -8 -17
-17z"/>
<path d="M1467 267 c-3 -7 3 -13 14 -13 13 0 15 3 7 13 -6 7 -12 13 -13 13 -2
0 -5 -6 -8 -13z"/>
<path d="M1720 271 c0 -6 4 -13 10 -16 6 -3 7 1 4 9 -7 18 -14 21 -14 7z"/>
<path d="M1554 252 c23 -26 22 -26 30 -6 3 9 2 12 -5 9 -5 -4 -18 -1 -27 6
-13 11 -12 8 2 -9z"/>
<path d="M1639 253 c-13 -16 -12 -17 4 -4 16 13 21 21 13 21 -2 0 -10 -8 -17
-17z"/>
<path d="M917 253 c-10 -9 -9 -23 1 -23 5 0 9 7 9 15 0 17 -1 18 -10 8z"/>
<path d="M1155 249 c-4 -6 -5 -12 -2 -15 2 -3 7 2 10 11 7 17 1 20 -8 4z"/>
<path d="M1257 249 c7 -7 15 -10 18 -7 3 3 -2 9 -12 12 -14 6 -15 5 -6 -5z"/>
<path d="M1810 250 c-8 -5 -12 -12 -9 -15 4 -3 12 1 19 10 14 17 11 19 -10 5z"/>
<path d="M736 242 c-3 -4 4 -9 15 -9 23 -2 25 3 4 10 -8 4 -16 3 -19 -1z"/>
<path d="M976 233 c-6 -14 -5 -15 5 -6 7 7 10 15 7 18 -3 3 -9 -2 -12 -12z"/>
<path d="M1056 233 c-6 -14 -5 -15 5 -6 7 7 10 15 7 18 -3 3 -9 -2 -12 -12z"/>
<path d="M1326 238 c3 -5 10 -6 15 -3 13 9 11 12 -6 12 -8 0 -12 -4 -9 -9z"/>
<path d="M1696 238 c3 -5 10 -6 15 -3 13 9 11 12 -6 12 -8 0 -12 -4 -9 -9z"/>
<path d="M999 213 c-13 -16 -12 -17 4 -4 16 13 21 21 13 21 -2 0 -10 -8 -17
-17z"/>
<path d="M1495 220 c-3 -5 -1 -10 4 -10 6 0 11 5 11 10 0 6 -2 10 -4 10 -3 0
-8 -4 -11 -10z"/>
</g>
</svg>
